<svg xmlns="http://www.w3.org/2000/svg" width="60" height="60" viewBox="0 0 60 60">
  <g id="feedback_error" transform="translate(-3.375 -3.376)">
    <path id="Path_2430" data-name="Path 2430" d="M34.628,31.4l-7.546-7.546,7.546-7.546a2.288,2.288,0,1,0-3.236-3.236l-7.546,7.546L16.3,13.069a2.288,2.288,0,0,0-3.236,3.236l7.546,7.546L13.064,31.4a2.212,2.212,0,0,0,0,3.236,2.273,2.273,0,0,0,3.236,0l7.546-7.546,7.546,7.546a2.3,2.3,0,0,0,3.236,0,2.273,2.273,0,0,0,0-3.236Z" transform="translate(9.529 9.524)" fill="#ea0303"/>
    <path id="Path_2431" data-name="Path 2431" d="M33.375,7.413a25.962,25.962,0,1,1-18.361,7.6,25.965,25.965,0,0,1,18.361-7.6m0-4.038a30,30,0,1,0,30,30,30,30,0,0,0-30-30Z" fill="#ea0303"/>
  </g>
</svg>
